<?xml version="1.0" encoding="UTF-8"?>
<svg id="Layer_1" data-name="Layer 1" xmlns="http://www.w3.org/2000/svg" version="1.1" viewBox="0 0 1129.3 1073.8">
  <defs>
    <style>
      .cls-1 {
        fill: #000;
      }

      .cls-1, .cls-2, .cls-3 {
        stroke-width: 0px;
      }

      .cls-2 {
        fill: #00aeef;
      }

      .cls-4 {
        opacity: 0;
      }

      .cls-3 {
        fill: #fff;
      }
    </style>
  </defs>
  <g class="cls-4">
    <path class="cls-2" d="M810.8,579.3h0c-1,136.2-109.7,245.9-246.9,245.9s-245.1-110.7-245.1-247.8c0-250.6,245.4-496.5,245.4-496.5,0,0,246.5,247.8,246.5,498.4Z"/>
    <path class="cls-2" d="M584.7,992.9c-96.5-.8-172.5-5.4-247.3-22.7-38.9-9-77.1-20.4-111-42-12.7-8.1-24.8-18-34.7-29.3-19.6-22.2-18.9-49.4-.4-72.6,12.5-15.6,28.4-27.2,46.4-34.8,24.3-10.3,49.4-19.1,74.4-27.7,11-3.8,21.4,2.1,24.1,11.7,3,10.8-2.9,20.3-14.8,23.7-26.8,7.5-53.3,15.9-77.2,30.5-8,4.9-15.6,10.9-22.2,17.6-10.7,11-10.2,21.8.2,33.1,12.1,13.2,27.8,21.2,43.9,28.2,38.8,16.9,79.6,26.7,121.2,33.3,118.3,18.7,236.7,18.8,355,0,45.1-7.2,89.5-17.4,130.6-37.8,12.1-6,23.7-14.1,33.8-23.2,12.2-10.9,12.4-23.7,0-34.4-11.8-10.2-25.1-19.1-39.1-25.9-15.6-7.7-32.6-12.5-49.1-18.5-2.1-.8-4.4-1.2-6.4-2.1-8.9-3.9-13.2-13.2-10.4-22.3,2.9-9.1,11.8-15,21.1-12.4,36.1,10,71.4,22.1,100.7,46.5,9,7.5,17,17.2,22.7,27.4,12.4,22.5,6,47.5-15.6,68.4-23.3,22.4-51.8,35.5-81.7,46.1-52.2,18.6-106.4,28.1-161.3,32.8-40.8,3.5-81.9,5-102.8,6.2Z"/>
    <path class="cls-2" d="M579,910.2c-60.5-.6-106.8-4.2-151.7-17.9-10.5-3.2-20.7-7.5-30.6-12.2-9.6-4.6-12.7-15-8.4-24.2,4.1-8.7,14.2-13.2,23.5-9,49.4,22.4,101.9,25.8,154.8,26.1,43.5.2,86.7-3.8,128.6-17,6.8-2.1,13.2-5.1,19.8-8,11.2-4.9,21.7-1.8,26.3,7.8,4.7,9.9.7,20-10.3,25.4-26.1,12.8-54.2,19.3-82.8,22.8-27.5,3.4-55.2,5-69.1,6.1Z"/>
  </g>
  <g>
    <g>
      <path class="cls-1" d="M81.4,395.2h8l.5,11.8c3.1-7.5,11.2-12.8,20.6-12.8,14.4,0,25,11.7,25,26s-10.6,26.2-25,26.2-17.5-5.2-20.6-12.9v34.7h-8.5v-72.9ZM108.7,438.3c10.3,0,18.2-8.2,18.2-18.1s-7.9-17.9-18.2-17.9-18,8.2-18,17.9,7.8,18.1,18,18.1Z"/>
      <path class="cls-1" d="M153.4,445.3h-8.5v-74.3h8.5v74.3Z"/>
      <path class="cls-1" d="M163.8,420.1c0-14.3,11.5-26,26.6-26s26.5,11.7,26.5,26-11.3,26.2-26.5,26.2-26.6-11.7-26.6-26.2ZM208.4,420.1c0-9.7-7.7-17.9-18-17.9s-18.1,8.2-18.1,17.9,7.9,18.1,18.1,18.1,18-8.2,18-18.1Z"/>
      <path class="cls-1" d="M303.8,414.1v31.2h-8.5v-28.6c0-8.6-3.9-14.5-11.1-14.5s-14.1,8.7-14.7,19.2v23.9h-8.5v-28.6c0-8.6-4-14.5-11.1-14.5s-14.1,8.7-14.7,19.2v23.9h-8.5v-50.1h8l.4,8.7c4.3-5.4,10.2-9.7,17.7-9.7s13.1,4.4,15.4,11.3c4.4-6.2,10.6-11.3,18.9-11.3s16.6,8.2,16.6,19.9Z"/>
      <path class="cls-1" d="M344.3,446.3c-9.4,0-17.5-5.3-20.6-12.9l-.4,11.9h-8.1v-74.3h8.5v36c3.1-7.4,11.2-12.8,20.6-12.8,14.4,0,25,11.7,25,26s-10.6,26.2-25,26.2ZM342.5,402.2c-10.2,0-17.9,8.2-17.9,17.9s7.7,18.1,17.9,18.1,18.2-8.2,18.2-18.1-7.9-17.9-18.2-17.9Z"/>
      <path class="cls-1" d="M426.6,422.9h-41.6c.3,9.1,7,15.8,17.3,15.8s13.2-4.5,15.4-8.9l7.5,1c-2,6.8-9.7,15.6-22.9,15.6s-25.9-11.2-25.9-26.3,10.2-25.8,25.1-25.8,25.1,12.4,25.1,26.5v2.2ZM385,416.8h33.1c-.5-7.8-6.7-15-16.5-15s-16.2,6.7-16.5,15Z"/>
      <path class="cls-1" d="M462.7,396.4l-1.5,7.4c-1-.7-3-1.6-5.3-1.6-7.7,0-11,8.7-11,18.1v25h-8.5v-50.1h8l.5,8v.2c2.6-5.3,6-9.2,11.5-9.2s5.3,1.2,6.3,2.2Z"/>
      <path class="cls-1" d="M470.7,382c0-2.8,2.2-4.9,4.9-4.9s4.9,2.1,4.9,4.9-2.1,4.9-4.9,4.9-4.9-2.2-4.9-4.9ZM479.9,445.3h-8.5v-50.1h8.5v50.1Z"/>
      <path class="cls-1" d="M541.3,422.9h-41.6c.3,9.1,7,15.8,17.3,15.8s13.2-4.5,15.4-8.9l7.5,1c-2,6.8-9.7,15.6-22.9,15.6s-25.9-11.2-25.9-26.3,10.2-25.8,25.1-25.8,25.1,12.4,25.1,26.5v2.2ZM499.7,416.8h33.1c-.5-7.8-6.7-15-16.5-15s-16.2,6.7-16.5,15Z"/>
      <path class="cls-2" d="M576.3,416.2c0-4.2,3.3-7.3,7.3-7.3s7.2,3.2,7.2,7.3-3.1,7.2-7.2,7.2-7.3-3.3-7.3-7.2Z"/>
      <path class="cls-1" d="M629.9,395.2h8l.5,11.8c3.1-7.5,11.2-12.8,20.6-12.8,14.4,0,25,11.7,25,26s-10.6,26.2-25,26.2-17.5-5.2-20.6-12.9v34.7h-8.5v-72.9ZM657.3,438.3c10.3,0,18.2-8.2,18.2-18.1s-7.9-17.9-18.2-17.9-18,8.2-18,17.9,7.8,18.1,18,18.1Z"/>
      <path class="cls-1" d="M701.9,445.3h-8.5v-74.3h8.5v74.3Z"/>
      <path class="cls-1" d="M761,395.2v50.1h-8l-.3-8.8c-4.7,5.4-11.1,9.8-19.8,9.8s-18.6-7.6-18.6-21.8v-29.3h8.5v25.8c0,12.6,5.3,17.3,13.1,17.3,11.9,0,16.6-10.4,16.6-17.5h0v-25.6h8.4Z"/>
      <path class="cls-1" d="M850.4,414.1v31.2h-8.5v-28.6c0-8.6-3.9-14.5-11.1-14.5s-14.1,8.7-14.7,19.2v23.9h-8.5v-28.6c0-8.6-4-14.5-11.1-14.5s-14.1,8.7-14.7,19.2v23.9h-8.5v-50.1h8l.4,8.7c4.3-5.4,10.2-9.7,17.7-9.7s13.1,4.4,15.4,11.3c4.4-6.2,10.6-11.3,18.9-11.3s16.6,8.2,16.6,19.9Z"/>
      <path class="cls-1" d="M890.8,446.3c-9.4,0-17.5-5.3-20.6-12.9l-.4,11.9h-8.1v-74.3h8.5v36c3.1-7.4,11.2-12.8,20.6-12.8,14.4,0,25,11.7,25,26s-10.6,26.2-25,26.2ZM889,402.2c-10.2,0-17.9,8.2-17.9,17.9s7.7,18.1,17.9,18.1,18.2-8.2,18.2-18.1-7.9-17.9-18.2-17.9Z"/>
      <path class="cls-1" d="M924.4,382c0-2.8,2.2-4.9,4.9-4.9s4.9,2.1,4.9,4.9-2.1,4.9-4.9,4.9-4.9-2.2-4.9-4.9ZM933.5,445.3h-8.5v-50.1h8.5v50.1Z"/>
      <path class="cls-1" d="M993.4,416v29.3h-8.5v-25.8c0-12.6-5.3-17.3-13.1-17.3-11.9,0-16.6,10.4-16.6,17.5v25.6h-8.5v-50.1h8l.4,8.7c4.6-5.3,11.1-9.7,19.7-9.7s18.6,7.6,18.6,21.8Z"/>
      <path class="cls-1" d="M1047.9,453.1c0,10.3-10.1,15.9-21.9,15.9s-21.9-5.6-21.9-15.9,3.2-9.2,6.8-11.5c-2.7-1.5-4.6-3.7-4.6-6.4s2.9-5.7,5.7-7.1c-5-3.4-8-8.7-8-15.1,0-10.8,8.9-18.8,20.7-18.8s6.9.8,9.9,2.2l13.1-1.2v7.6l-5.8-.5c2.3,3,3.6,6.6,3.6,10.7,0,10.7-9,18.8-20.7,18.8s-5.2-.4-7.5-1.2c-1.8.8-2.9,1.9-2.9,3.2,0,2.6,3.7,3.4,9.7,3.4,14.9,0,23.8,6.2,23.8,15.9ZM1012.2,413c0,6.6,5.7,11.6,12.7,11.6s12.6-5,12.6-11.6-5.5-11.7-12.6-11.7-12.7,5-12.7,11.7ZM1039.9,453.2c0-6.5-7.5-8.8-18-8.8s-1.9-.1-2.9-.2c-3.1,1.4-6.8,4.9-6.8,8.7,0,5.8,5.6,9,13.9,9s13.9-3,13.9-8.7Z"/>
    </g>
    <g>
      <path class="cls-1" d="M120.5,586.7h-19.7v35.2h-19.4v-112h42.1c20.3,0,39.3,14.5,39.3,38.5s-9.6,29.3-22.5,34.8l23.7,38.6h-21.9l-21.4-35.2ZM100.8,568.4h22.7c10.9,0,19.9-7.6,19.9-20s-9-20.2-19.9-20.2h-22.7v40.2Z"/>
      <path class="cls-1" d="M203.4,528.2v27.4h34.1v18.3h-34.1v29.6h43.4v18.3h-62.8v-112h62.8v18.3h-43.4Z"/>
      <path class="cls-1" d="M360.3,509.9l-37.8,112h-22.7l-37.8-112h20.2l29,87.7,29-87.7h20.2Z"/>
      <path class="cls-2" d="M422.1,508.3c-31.9,0-56.9,25.7-56.9,57.6s7.6,33.1,19.6,43.7c3-6,6.4-11.6,9.7-16.7-6.3-7-10-16.6-10-26.9,0-21.4,15.8-39.3,37.5-39.3s37.5,17.8,37.5,39.3-3.7,19.9-10,27c3.4,5.1,6.7,10.8,9.8,16.8,12.2-10.5,19.8-26.2,19.8-43.8,0-31.9-25.1-57.6-57.1-57.6ZM422.1,605.2c-9.2,0-17.3-3.2-23.6-8.5-3.2,5-6.4,10.5-9.3,16.3,9.2,6.6,20.6,10.5,33,10.5s23.7-3.9,33-10.4c-2.9-5.8-6.1-11.3-9.4-16.3-6.3,5.3-14.4,8.5-23.6,8.5Z"/>
      <path class="cls-1" d="M566.4,603.6v18.3h-65.1v-112h19.4v93.7h45.7Z"/>
      <path class="cls-1" d="M627.1,623.5c-28.1,0-45.1-15.3-45.1-49.5v-64h19.4v64c0,23,9.5,31.2,25.7,31.2s25.5-8.2,25.5-31.2v-64h19.4v64c0,34.2-17,49.5-44.9,49.5Z"/>
      <path class="cls-1" d="M762.7,528.2h-26.5v93.7h-19.4v-93.7h-26.5v-18.3h72.4v18.3Z"/>
      <path class="cls-1" d="M780.1,509.9h19.4v112h-19.4v-112Z"/>
      <path class="cls-1" d="M875.3,623.5c31.9,0,56.9-25.7,56.9-57.6s-7.6-33.1-19.6-43.7c-3,6-6.4,11.6-9.7,16.7,6.3,7,10,16.6,10,26.9,0,21.4-15.8,39.3-37.5,39.3s-37.5-17.8-37.5-39.3,3.7-19.9,10-27c-3.4-5.1-6.7-10.8-9.8-16.8-12.2,10.5-19.8,26.2-19.8,43.8,0,31.9,25.1,57.6,57.1,57.6ZM875.3,526.6c9.2,0,17.3,3.2,23.6,8.5,3.2-5,6.4-10.5,9.3-16.3-9.2-6.6-20.6-10.5-33-10.5s-23.7,3.9-33,10.4c2.9,5.8,6.1,11.3,9.4,16.3,6.3-5.3,14.4-8.5,23.6-8.5Z"/>
      <path class="cls-1" d="M1048.3,509.9v112h-19.4l-56.8-79.3v79.3h-19.4v-112h19.4l56.8,79.3v-79.3h19.4Z"/>
      <path class="cls-2" d="M467.2,657.8c-.2,24.9-20.1,45-45.2,45s-44.8-20.2-44.8-45.3,5.1-30.9,11.9-44.5c2.9-5.8,6.1-11.3,9.3-16.3,11.6-18,23.6-30,23.6-30,0,0,12,12.1,23.6,30,3.3,5,6.5,10.5,9.4,16.3,6.9,13.7,12.1,29.2,12.1,44.8Z"/>
      <path class="cls-3" d="M402.2,656.2c0-3-2.6-5.3-5.6-5s-4.5,2.7-4.5,5.3c.2,25,25.5,28.3,28.3,28.6s0,0,0,0c-6.3-2.9-18.2-9.7-18.2-28.8Z"/>
    </g>
  </g>
</svg>